<mxfile host="app.diagrams.net" modified="2023-09-17T05:31:33.786Z" agent="Mozilla/5.0 (Windows NT 10.0; Win64; x64) AppleWebKit/537.36 (KHTML, like Gecko) Chrome/116.0.0.0 Safari/537.36 Edg/116.0.1938.81" version="21.7.5" etag="LBPs9B62ACVS0sNqd0XU" type="github">
  <diagram name="第 1 页" id="2XJFGIt8u6yxU4nk4Md5">
    <mxGraphModel>
      <root>
        <mxCell id="0" />
        <mxCell id="1" parent="0" />
      </root>
    </mxGraphModel>
  </diagram>
</mxfile>
